<?xml version="1.0" encoding="UTF-8" standalone="no"?>
<!DOCTYPE svg PUBLIC "-//W3C//DTD SVG 1.1//EN" "http://www.w3.org/Graphics/SVG/1.1/DTD/svg11.dtd">
<svg width="100%" height="100%" viewBox="0 0 2048 1536" version="1.1" xmlns="http://www.w3.org/2000/svg" xmlns:xlink="http://www.w3.org/1999/xlink" xml:space="preserve" xmlns:serif="http://www.serif.com/" style="fill-rule:evenodd;clip-rule:evenodd;stroke-linecap:round;stroke-linejoin:round;stroke-miterlimit:1.5;">
    <g id="Layer1" transform="matrix(2.28368,0,0,2.28368,-571.356,-523.363)">
        <path d="M588.9,393.825C588.764,454.773 588.9,688.92 588.9,737.106" style="fill:none;stroke-width:14.17px;"/>
        <path d="M473.9,508.272C595.544,509.222 932.928,508.196 1048.9,508.272" style="fill:none;stroke-width:8.76px;"/>
        <path d="M348.278,407.813C372.333,377.498 408.577,342.97 455.426,318.268C493.226,298.336 537.957,284.826 588.935,285.582C669.093,286.447 737.489,319.357 786.231,370.223C811.441,396.532 831.32,427.666 844.84,461.762C858.037,495.044 865.228,531.13 864.97,568.347C865.015,598.51 860.736,627.365 852.785,654.329C840.121,697.274 817.972,735.383 787.8,766.053C739.445,815.208 670.908,845.38 588.959,845.875C532.113,846.423 490.885,837.315 457.212,820.767C416.535,800.777 386.86,770.068 354.246,732.572C385.571,771.834 414.291,804.06 454.535,825.941C488.426,844.366 530.419,855.417 588.841,857.192C675.231,859.506 748.541,829.761 800.971,779.38C834.385,747.271 859.328,706.723 873.75,660.705C882.786,631.872 887.539,600.852 887.83,568.432C887.852,528.239 880.09,489.216 865.362,453.466C850.336,416.995 828.229,383.867 800.375,356.304C747.37,303.853 673.695,271.339 588.865,273.218C536.149,274.599 490.394,290.218 452.235,312.525C406.059,339.517 371.122,376.102 348.278,407.813Z"/>
    </g>
</svg>
